<svg xmlns="http://www.w3.org/2000/svg" width="76" height="54" viewBox="0 0 76 54" fill="none"><path d="M8.06619 49.7854L8.06832 49.7871C10.6803 51.9005 13.9767 52.9404 17.9189 52.9404C21.0572 52.9404 23.7633 52.3476 26.0168 51.1378C28.2642 49.9313 30.083 48.1807 31.4711 45.8985C32.8526 43.6272 33.85 40.8802 34.4739 37.6692C35.1196 34.4405 35.4404 30.7955 35.4404 26.7373C35.4404 21.3024 34.8217 16.6342 33.5713 12.7434C32.3415 8.8227 30.4264 5.79097 27.8039 3.68755C25.1917 1.55114 21.8835 0.5 17.9189 0.5C13.7336 0.5 10.3182 1.54754 7.72267 3.69062C5.14436 5.81949 3.29803 8.86581 2.1604 12.7895L2.15986 12.7914C1.04977 16.6767 0.5 21.3284 0.5 26.7373C0.5 32.1499 1.10748 36.8173 2.33443 40.7297L2.33469 40.7305C3.56461 44.6291 5.46817 47.6598 8.06619 49.7854ZM25.4276 37.2304L25.4269 37.2342C24.8668 40.0123 23.9599 42.019 22.7489 43.3149C21.5581 44.5893 19.9662 45.2412 17.9189 45.2412C15.8724 45.2412 14.2809 44.5897 13.0902 43.3162C11.8778 41.9965 10.9712 39.9775 10.4114 37.2018C9.87293 34.4187 9.60059 30.9332 9.60059 26.7373C9.60059 22.5644 9.8729 19.0902 10.4114 16.307C10.9718 13.5286 11.8682 11.5077 13.0605 10.1877C14.2517 8.8713 15.8526 8.19922 17.9189 8.19922C19.9855 8.19922 21.5865 8.87141 22.7777 10.188L22.7777 10.188L22.7804 10.1909C23.9938 11.5108 24.901 13.531 25.461 16.3088C26.0219 19.0908 26.3057 22.5643 26.3057 26.7373C26.3057 30.9555 26.0106 34.4503 25.4276 37.2304ZM74.999 52.2568H75.499V51.7568V44.7158V44.2158H74.999H52.1895L60.3385 36.26C60.3393 36.2592 60.3401 36.2584 60.3409 36.2577C63.0815 33.654 65.4488 31.2412 67.4416 29.0194L67.4433 29.0175C69.4517 26.7551 71.0072 24.4598 72.1019 22.1306C73.2063 19.781 73.7559 17.224 73.7559 14.4668C73.7559 11.7203 73.1095 9.2911 71.8013 7.19712C70.517 5.10468 68.6763 3.4825 66.2982 2.3284C63.914 1.14847 61.1009 0.568359 57.875 0.568359C55.3311 0.568359 53.0487 0.868775 51.0337 1.47765C49.0359 2.05861 47.2178 2.85041 45.582 3.8552L45.5793 3.85691C43.9863 4.84964 42.4851 5.94661 41.076 7.14781L40.7 7.46837L41.0161 7.84817L45.4253 13.146L45.7394 13.5235L46.1225 13.2162C48.058 11.6632 49.915 10.4794 51.6933 9.65695L51.6958 9.65579C53.4709 8.82299 55.4031 8.4043 57.499 8.4043C59.6822 8.4043 61.388 9.00222 62.6671 10.1555L62.6705 10.1586C63.9232 11.2675 64.5869 12.9349 64.5869 15.2529C64.5869 17.1425 64.2029 18.8796 63.4398 20.4713L63.4397 20.4713L63.4374 20.4764C62.6878 22.0859 61.5214 23.8128 59.9245 25.6572C58.3153 27.493 56.2607 29.684 53.7589 32.2313C53.7588 32.2314 53.7586 32.2315 53.7585 32.2317L40.8053 45.3558L40.6611 45.5018V45.707V51.7568V52.2568H41.1611H74.999Z" stroke="white"></path></svg>