<svg xmlns="http://www.w3.org/2000/svg" width="76" height="54" viewBox="0 0 76 54" fill="none"><path d="M8.06619 49.7854L8.06832 49.7871C10.6803 51.9005 13.9767 52.9404 17.9189 52.9404C21.0572 52.9404 23.7633 52.3476 26.0168 51.1378C28.2642 49.9313 30.083 48.1807 31.4711 45.8985C32.8526 43.6272 33.85 40.8802 34.4739 37.6692C35.1196 34.4405 35.4404 30.7955 35.4404 26.7373C35.4404 21.3024 34.8217 16.6342 33.5713 12.7434C32.3415 8.8227 30.4264 5.79097 27.8039 3.68755C25.1917 1.55114 21.8835 0.5 17.9189 0.5C13.7336 0.5 10.3182 1.54754 7.72267 3.69062C5.14436 5.81949 3.29803 8.86581 2.1604 12.7895L2.15986 12.7914C1.04977 16.6767 0.5 21.3284 0.5 26.7373C0.5 32.1499 1.10748 36.8173 2.33443 40.7297L2.33469 40.7305C3.56461 44.6291 5.46817 47.6598 8.06619 49.7854ZM25.4276 37.2304L25.4269 37.2342C24.8668 40.0123 23.9599 42.019 22.7489 43.3149C21.5581 44.5893 19.9662 45.2412 17.9189 45.2412C15.8724 45.2412 14.2809 44.5897 13.0902 43.3162C11.8778 41.9965 10.9712 39.9775 10.4114 37.2018C9.87293 34.4187 9.60059 30.9332 9.60059 26.7373C9.60059 22.5644 9.8729 19.0902 10.4114 16.307C10.9718 13.5286 11.8682 11.5077 13.0605 10.1877C14.2517 8.8713 15.8526 8.19922 17.9189 8.19922C19.9855 8.19922 21.5865 8.87141 22.7777 10.188L22.7777 10.188L22.7804 10.1909C23.9938 11.5108 24.901 13.531 25.461 16.3088C26.0219 19.0908 26.3057 22.5643 26.3057 26.7373C26.3057 30.9555 26.0106 34.4503 25.4276 37.2304ZM68.2354 23.5986L68.2367 23.5977C69.8974 22.4827 71.2058 21.0559 72.1563 19.3213C73.1151 17.5715 73.585 15.5261 73.585 13.2021C73.585 9.36562 72.131 6.27855 69.2252 3.99163C66.3251 1.68627 62.2454 0.568359 57.0547 0.568359C53.5227 0.568359 50.4078 1.06455 47.7194 2.06975C45.0626 3.06319 42.7632 4.2806 40.8277 5.72637L40.4411 6.0152L40.716 6.41182L44.5783 11.9831L44.8553 12.3826L45.2624 12.117C46.2951 11.4435 47.3848 10.8144 48.5318 10.2296C49.6622 9.65335 50.8958 9.17499 52.2341 8.79576C53.5734 8.42264 55.0651 8.2334 56.7129 8.2334C59.3836 8.2334 61.3078 8.82436 62.5715 9.92237L62.575 9.92543C63.8339 10.9986 64.4844 12.5117 64.4844 14.5352C64.4844 16.0911 64.1074 17.4298 63.3685 18.5698L63.3685 18.5698L63.365 18.5754C62.6614 19.6928 61.4949 20.6034 59.8101 21.2822C58.1361 21.9338 55.8816 22.2725 53.0215 22.2725H48.5781H48.0781V22.7725V29.2324V29.7324H48.5781H52.9873C55.9918 29.7324 58.4112 30.0154 60.2617 30.5661L60.2632 30.5666C62.1384 31.1181 63.4592 31.9288 64.2863 32.9627L64.2863 32.9628L64.2901 32.9674C65.1368 33.9999 65.5781 35.3389 65.5781 37.0254C65.5781 39.664 64.7337 41.6821 63.0824 43.1436C61.4438 44.5714 58.6232 45.3438 54.4912 45.3438C52.3935 45.3438 50.1654 45.0648 47.8053 44.5029C45.4478 43.9416 43.2276 43.1452 41.1436 42.1143L40.4219 41.7574V42.5625V49.7061V50.026L40.7123 50.16C42.8242 51.1347 45.0511 51.842 47.3919 52.2824L47.3928 52.2826C49.7512 52.7219 52.3002 52.9404 55.0381 52.9404C59.5925 52.9404 63.3609 52.2857 66.3184 50.9477C69.2628 49.6157 71.4781 47.7782 72.9296 45.4224L72.9308 45.4205C74.3726 43.0569 75.0889 40.3791 75.0889 37.4014C75.0889 33.9855 74.0244 31.1946 71.8633 29.081C70.0515 27.2901 67.5227 26.0956 64.318 25.4643C65.7531 25.0035 67.0598 24.3824 68.2354 23.5986Z" stroke="white"></path></svg>