<svg xmlns="http://www.w3.org/2000/svg" width="66" height="54" viewBox="0 0 66 54" fill="none"><path d="M8.06619 49.7854L8.06832 49.7871C10.6803 51.9005 13.9767 52.9404 17.9189 52.9404C21.0572 52.9404 23.7633 52.3476 26.0168 51.1378C28.2642 49.9313 30.083 48.1807 31.4711 45.8985C32.8526 43.6272 33.85 40.8802 34.4739 37.6692C35.1196 34.4405 35.4404 30.7955 35.4404 26.7373C35.4404 21.3024 34.8217 16.6342 33.5713 12.7434C32.3415 8.8227 30.4264 5.79097 27.8039 3.68755C25.1917 1.55114 21.8835 0.5 17.9189 0.5C13.7336 0.5 10.3182 1.54754 7.72267 3.69062C5.14436 5.81949 3.29803 8.86581 2.1604 12.7895L2.15986 12.7914C1.04977 16.6767 0.5 21.3284 0.5 26.7373C0.5 32.1499 1.10748 36.8173 2.33443 40.7297L2.33469 40.7305C3.56461 44.6291 5.46817 47.6598 8.06619 49.7854ZM25.4276 37.2304L25.4269 37.2342C24.8668 40.0123 23.9599 42.019 22.7489 43.3149C21.5581 44.5893 19.9662 45.2412 17.9189 45.2412C15.8724 45.2412 14.2809 44.5897 13.0902 43.3162C11.8778 41.9965 10.9712 39.9775 10.4114 37.2018C9.87293 34.4187 9.60059 30.9332 9.60059 26.7373C9.60059 22.5644 9.8729 19.0902 10.4114 16.307C10.9718 13.5286 11.8682 11.5077 13.0605 10.1877C14.2517 8.8713 15.8526 8.19922 17.9189 8.19922C19.9855 8.19922 21.5865 8.87141 22.7777 10.188L22.7777 10.188L22.7804 10.1909C23.9938 11.5108 24.901 13.531 25.461 16.3088C26.0219 19.0908 26.3057 22.5643 26.3057 26.7373C26.3057 30.9555 26.0106 34.4503 25.4276 37.2304ZM64.7793 52.2568H65.2793V51.7568V1.78613V1.28613H64.7793H58.0801H57.9075L57.7717 1.39253L42.9377 13.0136L42.5421 13.3236L42.8541 13.7176L46.8873 18.8104L47.1988 19.2038L47.5911 18.8909L53.3333 14.3108L53.3397 14.3057L53.346 14.3003C54.1226 13.6379 54.8541 12.9979 55.5404 12.3802C55.8468 12.1134 56.1331 11.854 56.3991 11.6021C56.3681 12.1266 56.3404 12.6639 56.3159 13.2141L56.3158 13.2141L56.3156 13.2252C56.2928 14.2508 56.27 15.2991 56.2472 16.3702C56.2243 17.4447 56.2129 18.5192 56.2129 19.5938V51.7568V52.2568H56.7129H64.7793Z" stroke="white"></path></svg>